<?xml version="1.0" encoding="UTF-8"?>
<!DOCTYPE svg PUBLIC "-//W3C//DTD SVG 1.1//EN" "http://www.w3.org/Graphics/SVG/1.1/DTD/svg11.dtd">
<svg xmlns="http://www.w3.org/2000/svg" version="1.1" width="1024px" height="1024px" style="shape-rendering:geometricPrecision; text-rendering:geometricPrecision; image-rendering:optimizeQuality; fill-rule:evenodd; clip-rule:evenodd" xmlns:xlink="http://www.w3.org/1999/xlink">
<g><path style="opacity:1" fill="#fafafa" d="M -0.5,-0.5 C 340.833,-0.5 682.167,-0.5 1023.5,-0.5C 1023.5,340.833 1023.5,682.167 1023.5,1023.5C 682.167,1023.5 340.833,1023.5 -0.5,1023.5C -0.5,682.167 -0.5,340.833 -0.5,-0.5 Z"/></g>
<g><path style="opacity:1" fill="#c090ee" d="M 596.5,944.5 C 595.726,943.853 594.726,943.52 593.5,943.5C 583.464,945.105 574.797,946.772 567.5,948.5C 428.51,963.335 307.51,923.835 204.5,830C 124.561,753.954 78.2278,660.788 65.5,550.5C 66.1611,548.866 66.4944,547.033 66.5,545C 65.1023,523.361 64.1023,501.861 63.5,480.5C 71.7898,358.098 121.123,255.931 211.5,174C 317.571,84.2152 439.905,48.5486 578.5,67C 714.323,88.3023 819.489,156.136 894,270.5C 961.577,382.655 977.91,501.988 943,628.5C 897.726,771.105 805.56,869.939 666.5,925C 643.67,933.374 620.337,939.874 596.5,944.5 Z"/></g>
<g><path style="opacity:1" fill="#fefefe" d="M 504.5,144.5 C 509.123,143.408 510.956,145.075 510,149.5C 504.239,158.016 499.239,167.016 495,176.5C 488.413,193.271 490.08,209.271 500,224.5C 508.789,238.289 519.956,249.789 533.5,259C 549.668,268.919 566.002,278.585 582.5,288C 593.006,294.753 603.34,301.753 613.5,309C 627.899,322.677 635.232,339.51 635.5,359.5C 633.514,382.599 630.68,405.599 627,428.5C 622.454,467.197 633.621,500.364 660.5,528C 669.375,533.155 675.208,530.655 678,520.5C 678.667,516.167 678.667,511.833 678,507.5C 675.296,503.389 673.796,498.889 673.5,494C 677.402,473.983 677.402,453.983 673.5,434C 673.357,430.443 674.857,427.943 678,426.5C 709.429,439.923 734.095,461.256 752,490.5C 767.687,519.032 770.354,548.699 760,579.5C 751.965,592.233 744.965,605.567 739,619.5C 734.245,626.676 729.245,633.676 724,640.5C 712,653.167 700,665.833 688,678.5C 669.877,705.299 652.543,732.632 636,760.5C 594.637,804.636 544.803,817.803 486.5,800C 472.035,794.401 457.368,789.401 442.5,785C 418.899,781.521 395.232,778.521 371.5,776C 342.693,771.683 318.526,758.849 299,737.5C 284.92,718.524 278.587,697.19 280,673.5C 283.482,670.979 286.982,671.145 290.5,674C 311.456,689.661 334.789,700.328 360.5,706C 365.419,706.802 370.252,706.635 375,705.5C 374.554,702.261 373.221,699.261 371,696.5C 357.209,682.256 345.876,666.256 337,648.5C 334.678,641.668 334.012,634.668 335,627.5C 340.469,610.217 342.469,592.55 341,574.5C 336.821,556.271 333.154,537.938 330,519.5C 327.337,493.48 330.337,468.147 339,443.5C 340.932,436.74 345.099,432.073 351.5,429.5C 353.383,429.876 354.883,430.876 356,432.5C 362.306,450.78 370.973,467.78 382,483.5C 389.514,489.596 395.514,488.262 400,479.5C 421.637,440.953 431.97,399.62 431,355.5C 426.279,326.894 421.946,298.227 418,269.5C 416.671,206.789 445.504,165.122 504.5,144.5 Z"/></g>
<g><path style="opacity:1" fill="#fefefe" d="M 357.5,261.5 C 361.839,260.846 365.673,261.846 369,264.5C 369.667,266.5 369.667,268.5 369,270.5C 357.728,279.437 347.395,289.437 338,300.5C 332.026,308.923 328.526,318.256 327.5,328.5C 327.811,332.602 328.644,336.602 330,340.5C 335.575,351.99 341.909,362.99 349,373.5C 351.319,382.699 350.652,391.699 347,400.5C 335.554,420.391 324.887,440.725 315,461.5C 312.791,466.685 308.958,468.851 303.5,468C 294.837,463.345 287.337,457.178 281,449.5C 260.089,424.328 248.589,395.328 246.5,362.5C 246.796,345.778 251.963,330.778 262,317.5C 272.363,305.134 284.53,294.967 298.5,287C 317.568,276.821 337.234,268.321 357.5,261.5 Z"/></g>
<g><path style="opacity:1" fill="#b57beb" d="M 63.5,480.5 C 64.1023,501.861 65.1023,523.361 66.5,545C 66.4944,547.033 66.1611,548.866 65.5,550.5C 63.7491,527.208 63.0824,503.875 63.5,480.5 Z"/></g>
<g><path style="opacity:1" fill="#fefefe" d="M 821.5,684.5 C 821.5,686.833 821.5,689.167 821.5,691.5C 815.947,723.419 798.947,747.253 770.5,763C 744.438,776.031 718.438,789.031 692.5,802C 688.274,803.798 683.94,805.298 679.5,806.5C 677.971,806.471 676.804,805.804 676,804.5C 674.595,800.928 674.262,797.261 675,793.5C 679.214,766.182 688.548,740.848 703,717.5C 710.03,708.571 718.53,701.405 728.5,696C 742.273,690.722 756.273,686.055 770.5,682C 785.943,676.957 795.276,666.457 798.5,650.5C 800.054,642.602 800.887,634.602 801,626.5C 801.513,625.473 802.013,624.473 802.5,623.5C 805.051,622.051 807.385,622.385 809.5,624.5C 815.771,634.223 819.604,644.89 821,656.5C 821.5,665.827 821.666,675.161 821.5,684.5 Z"/></g>
<g><path style="opacity:1" fill="#bb84ed" d="M 802.5,623.5 C 802.013,624.473 801.513,625.473 801,626.5C 800.887,634.602 800.054,642.602 798.5,650.5C 797.861,649.903 797.528,649.07 797.5,648C 798.228,641.857 798.728,635.691 799,629.5C 799.36,627.392 800.027,625.392 801,623.5C 801.69,622.262 802.19,622.262 802.5,623.5 Z"/></g>
<g><path style="opacity:1" fill="#b476eb" d="M 821.5,691.5 C 821.5,689.167 821.5,686.833 821.5,684.5C 822.328,678.681 822.828,672.681 823,666.5C 823.167,670 823.333,673.5 823.5,677C 823.774,683.329 823.107,688.162 821.5,691.5 Z"/></g>
<g><path style="opacity:1" fill="#b477e9" d="M 596.5,944.5 C 586.88,946.159 577.213,947.492 567.5,948.5C 574.797,946.772 583.464,945.105 593.5,943.5C 594.726,943.52 595.726,943.853 596.5,944.5 Z"/></g>
</svg>
