<?xml version="1.0" encoding="UTF-8"?>
<!DOCTYPE svg PUBLIC "-//W3C//DTD SVG 1.1//EN" "http://www.w3.org/Graphics/SVG/1.1/DTD/svg11.dtd">
<svg xmlns="http://www.w3.org/2000/svg" version="1.1" width="1024px" height="1024px" style="shape-rendering:geometricPrecision; text-rendering:geometricPrecision; image-rendering:optimizeQuality; fill-rule:evenodd; clip-rule:evenodd" xmlns:xlink="http://www.w3.org/1999/xlink">
<g><path style="opacity:1" fill="#fbfbfb" d="M -0.5,-0.5 C 340.833,-0.5 682.167,-0.5 1023.5,-0.5C 1023.5,340.833 1023.5,682.167 1023.5,1023.5C 682.167,1023.5 340.833,1023.5 -0.5,1023.5C -0.5,682.167 -0.5,340.833 -0.5,-0.5 Z"/></g>
<g><path style="opacity:1" fill="#151515" d="M 482.5,62.5 C 623.613,55.9026 743.447,102.569 842,202.5C 937.461,309.25 975.127,433.917 955,576.5C 930.615,707.546 862.781,809.046 751.5,881C 646.653,945.125 533.986,964.458 413.5,939C 294.944,910.025 201.777,845.192 134,744.5C 66.5642,635.882 47.5642,519.216 77,394.5C 114.684,260.832 195.85,163.665 320.5,103C 372.108,79.4313 426.108,65.9313 482.5,62.5 Z"/></g>
<g><path style="opacity:1" fill="#fbfbfb" d="M 501.5,131.5 C 526.804,128.236 545.637,137.569 558,159.5C 560.764,165.887 562.264,172.554 562.5,179.5C 636.468,195.657 691.301,236.99 727,303.5C 761.776,377.992 760.776,451.992 724,525.5C 719.869,532.936 715.369,540.102 710.5,547C 728.959,566.46 747.792,585.626 767,604.5C 798.759,559.238 817.092,508.905 822,453.5C 822.85,436.841 823.517,420.174 824,403.5C 829.48,383.019 842.813,372.686 864,372.5C 885.673,373.343 899.006,384.343 904,405.5C 908.919,527.76 867.752,631.26 780.5,716C 673.59,809.811 550.59,840.478 411.5,808C 295.434,774.921 210.6,704.421 157,596.5C 129.015,535.906 116.681,472.239 120,405.5C 126.394,381.714 141.894,370.881 166.5,373C 185.251,376.085 196.418,386.919 200,405.5C 197.778,467.608 211.444,525.941 241,580.5C 245.837,588.844 251.17,596.844 257,604.5C 276.014,585.653 294.847,566.653 313.5,547.5C 272.288,484.87 261.455,417.203 281,344.5C 306.111,266.389 357.278,213.556 434.5,186C 443.326,183.043 452.326,180.877 461.5,179.5C 463.583,154.086 476.917,138.086 501.5,131.5 Z"/></g>
<g><path style="opacity:1" fill="#151515" d="M 501.5,245.5 C 562.727,244.2 611.561,267.867 648,316.5C 684.109,373.257 686.776,431.591 656,491.5C 619.631,549.941 566.797,577.774 497.5,575C 433.518,566.619 387.684,533.453 360,475.5C 336.041,412.535 345.041,354.868 387,302.5C 418.052,269.224 456.218,250.224 501.5,245.5 Z"/></g>
<g><path style="opacity:1" fill="#fbfbfb" d="M 503.5,323.5 C 544.456,322.381 573.29,340.381 590,377.5C 603.049,420.69 591.215,455.19 554.5,481C 514.569,499.929 479.069,493.762 448,462.5C 427.987,436.423 423.321,407.756 434,376.5C 447.833,346.489 471,328.823 503.5,323.5 Z"/></g>
<g><path style="opacity:1" fill="#151515" d="M 507.5,370.5 C 531.593,371.181 545.259,383.347 548.5,407C 546.279,429.388 533.946,441.554 511.5,443.5C 489.332,440.999 477.332,428.665 475.5,406.5C 478.113,387.226 488.78,375.226 507.5,370.5 Z"/></g>
<g><path style="opacity:1" fill="#151515" d="M 370.5,606.5 C 401.957,628.221 436.624,642.221 474.5,648.5C 474.5,677.5 474.5,706.5 474.5,735.5C 414.092,727.366 360.259,704.366 313,666.5C 312.333,665.833 312.333,665.167 313,664.5C 332.368,645.299 351.535,625.965 370.5,606.5 Z"/></g>
<g><path style="opacity:1" fill="#151515" d="M 652.5,606.5 C 672.132,625.632 691.632,644.965 711,664.5C 711.667,665.167 711.667,665.833 711,666.5C 663.904,704.717 610.07,727.717 549.5,735.5C 549.5,706.5 549.5,677.5 549.5,648.5C 587.022,641.893 621.355,627.893 652.5,606.5 Z"/></g>
</svg>
